<svg width="15" height="9" viewBox="0 0 15 9" fill="none" xmlns="http://www.w3.org/2000/svg">
<path d="M0.83 8H4.01C6.3 8 7.87 6.62 7.87 4.5C7.87 2.38 6.3 1 4.01 1H0.83V8ZM2.45 6.67V2.33H3.93C5.32 2.33 6.23 3.16 6.23 4.5C6.23 5.84 5.32 6.67 3.93 6.67H2.45Z" fill="#65C23A"/>
<path d="M11.3917 8.12C13.3917 8.12 14.3617 7.12 14.3617 5.95C14.3617 3.38 10.2917 4.27 10.2917 2.98C10.2917 2.54 10.6617 2.18 11.6217 2.18C12.2417 2.18 12.9117 2.36 13.5617 2.73L14.0617 1.5C13.4117 1.09 12.5117 0.88 11.6317 0.88C9.64172 0.88 8.68172 1.87 8.68172 3.06C8.68172 5.66 12.7517 4.76 12.7517 6.07C12.7517 6.5 12.3617 6.82 11.4017 6.82C10.5617 6.82 9.68172 6.52 9.09172 6.09L8.54172 7.31C9.16172 7.79 10.2817 8.12 11.3917 8.12Z" fill="white"/>
</svg>
